<?xml version="1.0" encoding="UTF-8"?>
<svg xmlns="http://www.w3.org/2000/svg" xmlns:xlink="http://www.w3.org/1999/xlink" width="13px" height="13px" viewBox="0 0 13 13" version="1.1">
<g id="surface1">
<path style=" stroke:none;fill-rule:nonzero;fill:rgb(0%,0%,0%);fill-opacity:1;" d="M 11.410156 2.085938 L 1.589844 2.085938 C 0.710938 2.085938 0 2.800781 0 3.675781 L 0 9.324219 C 0 10.199219 0.710938 10.914062 1.589844 10.914062 L 11.410156 10.914062 C 12.289062 10.914062 13 10.199219 13 9.324219 L 13 3.675781 C 13 2.800781 12.289062 2.085938 11.410156 2.085938 Z M 10.636719 3.125 L 6.5 5.789062 L 2.363281 3.125 Z M 11.410156 9.878906 L 1.589844 9.878906 C 1.285156 9.878906 1.035156 9.628906 1.035156 9.324219 L 1.035156 3.703125 L 6.179688 7.011719 C 6.1875 7.015625 6.195312 7.019531 6.203125 7.023438 C 6.210938 7.027344 6.21875 7.03125 6.222656 7.035156 C 6.265625 7.054688 6.304688 7.074219 6.347656 7.082031 C 6.351562 7.085938 6.355469 7.085938 6.359375 7.085938 C 6.40625 7.097656 6.453125 7.105469 6.5 7.105469 C 6.546875 7.105469 6.59375 7.097656 6.640625 7.085938 C 6.644531 7.085938 6.648438 7.085938 6.652344 7.082031 C 6.695312 7.074219 6.734375 7.054688 6.777344 7.035156 C 6.785156 7.03125 6.792969 7.027344 6.796875 7.023438 C 6.804688 7.019531 6.8125 7.015625 6.820312 7.011719 L 11.964844 3.703125 L 11.964844 9.324219 C 11.964844 9.628906 11.714844 9.878906 11.410156 9.878906 Z M 11.410156 9.878906 "/>
</g>
</svg>
